<svg version="1.1" id="Layer_1" xmlns="http://www.w3.org/2000/svg" xmlns:xlink="http://www.w3.org/1999/xlink" x="0px" y="0px"
	 width="100%" viewBox="0 0 4096 4096" enable-background="new 0 0 4096 4096" xml:space="preserve">
<path fill="#000000" opacity="1.000000" stroke="none"
	d="
M2428.000000,4098.000000
	C1618.666626,4098.000000 810.333313,4098.000000 2.000000,4098.000000
	C2.000000,2732.666748 2.000000,1367.333374 2.000000,2.000000
	C1367.333374,2.000000 2732.666748,2.000000 4098.000000,2.000000
	C4098.000000,1367.333374 4098.000000,2732.666748 4098.000000,4098.000000
	C3541.666748,4098.000000 2985.333252,4098.000000 2428.000000,4098.000000
M3301.000000,2205.674072
	C2990.692627,2205.674316 2680.385498,2205.669678 2370.078125,2205.704834
	C2363.422852,2205.705811 2356.701172,2205.644775 2350.122559,2206.488281
	C2265.024902,2217.400146 2206.194580,2289.513184 2206.228516,2369.519775
	C2206.431152,2848.813721 2206.323242,3328.107910 2206.380371,3807.401855
	C2206.381104,3813.697998 2206.941406,3820.021729 2207.647705,3826.286377
	C2216.726074,3906.814697 2287.770020,3969.848389 2369.781250,3969.800049
	C2848.741943,3969.517578 3327.702637,3969.668213 3806.663330,3969.605469
	C3814.291992,3969.604248 3821.998047,3969.293457 3829.536865,3968.212402
	C3878.912109,3961.130615 3916.984619,3936.067383 3944.675537,3894.899658
	C3964.957520,3864.746826 3971.643555,3830.805664 3971.645996,3795.174805
	C3971.679443,3323.546875 3971.681641,2851.918701 3971.583984,2380.290771
	C3971.581543,2369.337158 3970.989014,2358.295166 3969.544678,2347.444336
	C3958.499268,2264.443604 3886.369629,2205.261963 3807.958008,2205.510498
	C3639.640137,2206.044434 3471.319580,2205.674316 3301.000000,2205.674072
M132.331406,2923.000000
	C132.331375,3166.964844 132.331787,3410.929932 132.330399,3654.894775
	C132.330307,3671.874023 132.384460,3688.853516 132.295288,3705.832520
	C132.134308,3736.485840 131.531616,3767.142090 131.835068,3797.790039
	C131.966309,3811.045166 132.796219,3824.485352 135.209702,3837.488770
	C142.010361,3874.129150 160.032120,3904.844482 188.038437,3929.287598
	C217.974396,3955.415039 252.961563,3969.601318 292.956940,3969.608154
	C774.223877,3969.689453 1255.490845,3969.661133 1736.757812,3969.647461
	C1740.751953,3969.647217 1744.781616,3969.758545 1748.734863,3969.300781
	C1794.120605,3964.049316 1830.905884,3943.280762 1858.413330,3906.904297
	C1882.784302,3874.675781 1896.357666,3838.444824 1896.354858,3797.556885
	C1896.321655,3320.956055 1896.337036,2844.354980 1896.301514,2367.754150
	C1896.300903,2360.766602 1896.438721,2353.690918 1895.462402,2346.805176
	C1883.514404,2262.541504 1811.068237,2205.521973 1734.241089,2205.558838
	C1254.307251,2205.789307 774.373535,2205.690674 294.439728,2205.614746
	C276.223297,2205.612061 258.678925,2208.685059 241.547577,2214.628418
	C177.493286,2236.850586 132.217743,2299.045166 132.276733,2368.076172
	C132.434235,2552.384033 132.331039,2736.692139 132.331406,2923.000000
M2933.668701,1521.000122
	C2933.668701,1111.670044 2933.669678,702.340027 2933.654541,293.009949
	C2933.654297,288.014862 2933.856445,282.970276 2933.265625,278.032410
	C2928.320557,236.704941 2910.938477,201.567520 2879.980469,173.582520
	C2851.007080,147.391602 2817.005615,131.870117 2777.740234,131.848816
	C2293.743164,131.586075 1809.746216,131.671417 1325.749268,131.740784
	C1319.455322,131.741684 1313.095093,132.286057 1306.878540,133.281113
	C1268.935059,139.354660 1236.985596,156.880493 1211.388916,185.337555
	C1184.811401,214.884995 1169.764404,249.608658 1169.753296,289.687927
	C1169.620117,769.684937 1169.647095,1249.682007 1169.806152,1729.679077
	C1169.809448,1739.584473 1170.992310,1749.688599 1173.143555,1759.362427
	C1189.837036,1834.430176 1256.506592,1887.656860 1333.384033,1887.658203
	C1810.047729,1887.666016 2286.711426,1887.668213 2763.375244,1887.606812
	C2771.672607,1887.605713 2780.019043,1887.215820 2788.259521,1886.279175
	C2834.604492,1881.010742 2872.292236,1859.825317 2901.183838,1823.366699
	C2923.010986,1795.822998 2933.990967,1764.484009 2933.784912,1728.998291
	C2933.386475,1660.334351 2933.668701,1591.666504 2933.668701,1521.000122
z"/>
<path fill="#006573" opacity="1.000000" stroke="none"
	d="
M3302.000000,2205.674072
	C3471.319580,2205.674316 3639.640137,2206.044434 3807.958008,2205.510498
	C3886.369629,2205.261963 3958.499268,2264.443604 3969.544678,2347.444336
	C3970.989014,2358.295166 3971.581543,2369.337158 3971.583984,2380.290771
	C3971.681641,2851.918701 3971.679443,3323.546875 3971.645996,3795.174805
	C3971.643555,3830.805664 3964.957520,3864.746826 3944.675537,3894.899658
	C3916.984619,3936.067383 3878.912109,3961.130615 3829.536865,3968.212402
	C3821.998047,3969.293457 3814.291992,3969.604248 3806.663330,3969.605469
	C3327.702637,3969.668213 2848.741943,3969.517578 2369.781250,3969.800049
	C2287.770020,3969.848389 2216.726074,3906.814697 2207.647705,3826.286377
	C2206.941406,3820.021729 2206.381104,3813.697998 2206.380371,3807.401855
	C2206.323242,3328.107910 2206.431152,2848.813721 2206.228516,2369.519775
	C2206.194580,2289.513184 2265.024902,2217.400146 2350.122559,2206.488281
	C2356.701172,2205.644775 2363.422852,2205.705811 2370.078125,2205.704834
	C2680.385498,2205.669678 2990.692627,2205.674316 3302.000000,2205.674072
M3651.658203,2753.000000
	C3651.616943,2681.340332 3651.578369,2609.680664 3651.507324,2538.020996
	C3651.506348,2537.051514 3651.123047,2536.076416 3650.870361,2535.116699
	C3650.790039,2534.812988 3650.579590,2534.530029 3650.380371,2534.275391
	C3650.176758,2534.015137 3649.913330,2533.801270 3648.416016,2532.325439
	C3644.445312,2532.325439 3639.181641,2532.325439 3633.918213,2532.325439
	C3273.283447,2532.325439 2912.648438,2532.325195 2552.013672,2532.327637
	C2548.347412,2532.327637 2544.670654,2532.199707 2541.019287,2532.440918
	C2538.830566,2532.585449 2536.681885,2533.332520 2534.760742,2533.754639
	C2532.807861,2546.525146 2533.347412,3641.187744 2535.204346,3648.845215
	C2544.815674,3651.132080 3642.193359,3650.917969 3650.490479,3648.572754
	C3650.773193,3647.758789 3651.374756,3646.835938 3651.375000,3645.913086
	C3651.496582,3348.942139 3651.576904,3051.970947 3651.658203,2753.000000
z"/>
<path fill="#006573" opacity="1.000000" stroke="none"
	d="
M132.331421,2922.000000
	C132.331039,2736.692139 132.434235,2552.384033 132.276733,2368.076172
	C132.217743,2299.045166 177.493286,2236.850586 241.547577,2214.628418
	C258.678925,2208.685059 276.223297,2205.612061 294.439728,2205.614746
	C774.373535,2205.690674 1254.307251,2205.789307 1734.241089,2205.558838
	C1811.068237,2205.521973 1883.514404,2262.541504 1895.462402,2346.805176
	C1896.438721,2353.690918 1896.300903,2360.766602 1896.301514,2367.754150
	C1896.337036,2844.354980 1896.321655,3320.956055 1896.354858,3797.556885
	C1896.357666,3838.444824 1882.784302,3874.675781 1858.413330,3906.904297
	C1830.905884,3943.280762 1794.120605,3964.049316 1748.734863,3969.300781
	C1744.781616,3969.758545 1740.751953,3969.647217 1736.757812,3969.647461
	C1255.490845,3969.661133 774.223877,3969.689453 292.956940,3969.608154
	C252.961563,3969.601318 217.974396,3955.415039 188.038437,3929.287598
	C160.032120,3904.844482 142.010361,3874.129150 135.209702,3837.488770
	C132.796219,3824.485352 131.966309,3811.045166 131.835068,3797.790039
	C131.531616,3767.142090 132.134308,3736.485840 132.295288,3705.832520
	C132.384460,3688.853516 132.330307,3671.874023 132.330399,3654.894775
	C132.331787,3410.929932 132.331375,3166.964844 132.331421,2922.000000
M451.676788,3481.000000
	C451.677490,3532.995850 451.658844,3584.991699 451.715546,3636.987549
	C451.720093,3641.156006 452.243927,3645.323730 452.507050,3649.205811
	C466.240295,3651.257568 1560.664062,3650.682373 1568.153320,3648.805420
	C1570.527222,3639.111084 1570.231934,2541.476807 1567.847168,2533.698486
	C1567.277832,2533.406982 1566.721558,2532.937500 1566.108032,2532.843750
	C1564.469971,2532.593750 1562.807251,2532.371582 1561.154297,2532.371582
	C1193.852173,2532.358398 826.550049,2532.364258 459.247894,2532.398193
	C457.602966,2532.398438 455.954712,2532.782715 454.316406,2533.041260
	C454.024658,2533.087402 453.768250,2533.390381 453.507507,2533.590576
	C453.244019,2533.792725 452.995361,2534.014160 451.676758,2535.115234
	C451.676758,2849.150635 451.676758,3164.075439 451.676788,3481.000000
z"/>
<path fill="#006573" opacity="1.000000" stroke="none"
	d="
M2933.668457,1522.000244
	C2933.668701,1591.666504 2933.386475,1660.334351 2933.784912,1728.998291
	C2933.990967,1764.484009 2923.010986,1795.822998 2901.183838,1823.366699
	C2872.292236,1859.825317 2834.604492,1881.010742 2788.259521,1886.279175
	C2780.019043,1887.215820 2771.672607,1887.605713 2763.375244,1887.606812
	C2286.711426,1887.668213 1810.047729,1887.666016 1333.384033,1887.658203
	C1256.506592,1887.656860 1189.837036,1834.430176 1173.143555,1759.362427
	C1170.992310,1749.688599 1169.809448,1739.584473 1169.806152,1729.679077
	C1169.647095,1249.682007 1169.620117,769.684937 1169.753296,289.687927
	C1169.764404,249.608658 1184.811401,214.884995 1211.388916,185.337555
	C1236.985596,156.880493 1268.935059,139.354660 1306.878540,133.281113
	C1313.095093,132.286057 1319.455322,131.741684 1325.749268,131.740784
	C1809.746216,131.671417 2293.743164,131.586075 2777.740234,131.848816
	C2817.005615,131.870117 2851.007080,147.391602 2879.980469,173.582520
	C2910.938477,201.567520 2928.320557,236.704941 2933.265625,278.032410
	C2933.856445,282.970276 2933.654297,288.014862 2933.654541,293.009949
	C2933.669678,702.340027 2933.668701,1111.670044 2933.668457,1522.000244
M1625.000122,450.333557
	C1581.338989,450.376190 1537.677979,450.414612 1494.016846,450.488983
	C1493.048096,450.490631 1492.073975,450.879364 1491.115356,451.136230
	C1490.812378,451.217407 1490.532715,451.433014 1490.277832,451.632324
	C1490.016968,451.836151 1489.799438,452.095123 1488.341309,453.542664
	C1488.341309,457.582031 1488.341309,462.841614 1488.341309,468.101196
	C1488.341309,828.732483 1488.341064,1189.363770 1488.343506,1549.994995
	C1488.343506,1553.661133 1488.214966,1557.338135 1488.458496,1560.989258
	C1488.604492,1563.177612 1489.357666,1565.325562 1489.783203,1567.244385
	C1502.601685,1569.226074 2597.200684,1568.673096 2604.850342,1566.787964
	C2607.111328,1557.093750 2606.876953,459.753906 2604.228516,450.333588
	C2278.742920,450.333588 1952.871582,450.333588 1625.000122,450.333557
z"/>
<path fill="#000000" opacity="1.000000" stroke="none"
	d="
M3651.658203,2754.000000
	C3651.576904,3051.970947 3651.496582,3348.942139 3651.375000,3645.913086
	C3651.374756,3646.835938 3650.773193,3647.758789 3650.490479,3648.572754
	C3642.193359,3650.917969 2544.815674,3651.132080 2535.204346,3648.845215
	C2533.347412,3641.187744 2532.807861,2546.525146 2534.760742,2533.754639
	C2536.681885,2533.332520 2538.830566,2532.585449 2541.019287,2532.440918
	C2544.670654,2532.199707 2548.347412,2532.327637 2552.013672,2532.327637
	C2912.648438,2532.325195 3273.283447,2532.325439 3633.918213,2532.325439
	C3639.181641,2532.325439 3644.445312,2532.325439 3648.416016,2532.325439
	C3649.913330,2533.801270 3650.176758,2534.015137 3650.380371,2534.275391
	C3650.579590,2534.530029 3650.790039,2534.812988 3650.870361,2535.116699
	C3651.123047,2536.076416 3651.506348,2537.051514 3651.507324,2538.020996
	C3651.578369,2609.680664 3651.616943,2681.340332 3651.658203,2754.000000
z"/>
<path fill="#000000" opacity="1.000000" stroke="none"
	d="
M451.676758,3480.000000
	C451.676758,3164.075439 451.676758,2849.150635 451.676758,2535.115234
	C452.995361,2534.014160 453.244019,2533.792725 453.507507,2533.590576
	C453.768250,2533.390381 454.024658,2533.087402 454.316406,2533.041260
	C455.954712,2532.782715 457.602966,2532.398438 459.247894,2532.398193
	C826.550049,2532.364258 1193.852173,2532.358398 1561.154297,2532.371582
	C1562.807251,2532.371582 1564.469971,2532.593750 1566.108032,2532.843750
	C1566.721558,2532.937500 1567.277832,2533.406982 1567.847168,2533.698486
	C1570.231934,2541.476807 1570.527222,3639.111084 1568.153320,3648.805420
	C1560.664062,3650.682373 466.240295,3651.257568 452.507050,3649.205811
	C452.243927,3645.323730 451.720093,3641.156006 451.715546,3636.987549
	C451.658844,3584.991699 451.677490,3532.995850 451.676758,3480.000000
z"/>
<path fill="#000000" opacity="1.000000" stroke="none"
	d="
M1626.000244,450.333557
	C1952.871582,450.333588 2278.742920,450.333588 2604.228516,450.333588
	C2606.876953,459.753906 2607.111328,1557.093750 2604.850342,1566.787964
	C2597.200684,1568.673096 1502.601685,1569.226074 1489.783203,1567.244385
	C1489.357666,1565.325562 1488.604492,1563.177612 1488.458496,1560.989258
	C1488.214966,1557.338135 1488.343506,1553.661133 1488.343506,1549.994995
	C1488.341064,1189.363770 1488.341309,828.732483 1488.341309,468.101196
	C1488.341309,462.841614 1488.341309,457.582031 1488.341309,453.542664
	C1489.799438,452.095123 1490.016968,451.836151 1490.277832,451.632324
	C1490.532715,451.433014 1490.812378,451.217407 1491.115356,451.136230
	C1492.073975,450.879364 1493.048096,450.490631 1494.016846,450.488983
	C1537.677979,450.414612 1581.338989,450.376190 1626.000244,450.333557
z"/>
</svg>
