<?xml version="1.0" standalone="no"?>
<!DOCTYPE svg PUBLIC "-//W3C//DTD SVG 20010904//EN"
 "http://www.w3.org/TR/2001/REC-SVG-20010904/DTD/svg10.dtd">
<svg version="1.0" xmlns="http://www.w3.org/2000/svg"
 width="4096.000000pt" height="4096.000000pt" viewBox="0 0 4096.000000 4096.000000"
 preserveAspectRatio="xMidYMid meet">
<metadata>
Created by potrace 1.14, written by Peter Selinger 2001-2017
</metadata>
<g transform="translate(0.000000,4096.000000) scale(0.100000,-0.100000)"
fill="#000000" stroke="none">
<path d="M13060 39654 c-433 -71 -792 -282 -1055 -619 -34 -44 -68 -91 -75
-105 -7 -14 -17 -27 -21 -30 -5 -3 -34 -57 -67 -120 -67 -133 -121 -288 -154
-445 l-23 -110 0 -7305 c0 -4018 3 -7332 8 -7365 13 -105 18 -128 43 -225 150
-561 584 -999 1149 -1159 93 -26 155 -38 245 -48 97 -10 14642 -11 14738 0 40
4 78 10 85 12 7 2 28 6 47 9 98 15 257 67 386 127 66 31 222 120 254 145 8 7
49 40 91 73 304 241 533 635 577 991 10 76 9 14678 -1 14762 -4 36 -9 72 -12
80 -2 7 -6 27 -9 43 -34 214 -180 519 -343 712 -110 132 -292 289 -418 361
-81 46 -239 122 -255 122 -9 0 -20 4 -25 9 -22 19 -201 66 -332 86 -133 21
-14707 20 -14833 -1z m12971 -3174 c0 -7 0 -11093 0 -11145 l-1 -40 -5578 2
c-3067 1 -5584 2 -5592 2 -13 1 -15 628 -14 5589 1 3073 2 5589 3 5592 1 7
11181 7 11182 0z"/>
<path d="M2760 18920 c-98 -13 -153 -21 -159 -25 -3 -1 -22 -6 -41 -9 -63 -9
-243 -72 -335 -117 -205 -98 -355 -213 -539 -412 -29 -31 -136 -174 -136 -181
0 -3 -11 -21 -24 -40 -40 -60 -113 -216 -150 -324 -19 -56 -35 -106 -35 -110
0 -4 -5 -27 -11 -52 -40 -167 -39 79 -40 -6835 -1 -7600 -1 -8006 4 -8031 2
-10 7 -44 10 -75 4 -31 8 -65 10 -75 80 -402 281 -736 591 -985 128 -103 233
-164 445 -256 46 -21 223 -67 295 -78 22 -4 58 -11 80 -16 46 -10 14746 -7
14785 3 14 4 41 9 60 12 19 3 46 8 60 11 14 3 36 8 50 11 137 28 451 177 528
251 7 7 16 13 20 13 8 1 62 48 147 129 260 250 436 575 522 968 l28 128 0
7325 c0 4029 -4 7343 -8 7365 -5 22 -11 54 -13 70 -51 312 -231 648 -471 878
-87 83 -242 207 -259 207 -4 0 -15 6 -23 14 -53 46 -307 157 -436 190 -58 15
-72 18 -145 30 -19 3 -48 9 -65 13 -39 9 -14673 11 -14745 3z m12903 -8848 c0
-3070 -3 -5586 -7 -5590 -8 -8 -11175 -10 -11177 -2 -4 13 -5 11166 -2 11173
3 4 2520 6 5595 5 l5591 -3 0 -5583z"/>
<path d="M23475 18918 c-254 -43 -381 -83 -563 -176 -309 -159 -577 -440 -731
-766 -32 -69 -95 -247 -106 -302 -3 -16 -13 -67 -23 -114 -16 -80 -17 -535
-17 -7450 0 -6915 1 -7370 17 -7450 10 -47 20 -98 23 -115 12 -62 77 -243 116
-324 215 -445 622 -774 1098 -887 188 -45 -170 -42 7571 -43 7547 0 7336 -1
7515 34 107 21 379 118 405 145 3 3 31 19 63 35 76 40 247 167 323 241 63 62
214 237 214 248 0 3 17 31 39 63 134 202 222 469 247 745 8 93 7 14563 -1
14628 -4 30 -7 62 -7 70 0 8 -6 49 -14 90 -55 293 -195 577 -389 789 -67 74
-157 157 -220 205 -33 25 -65 50 -71 55 -5 4 -21 14 -35 21 -13 7 -26 16 -29
20 -11 15 -213 114 -300 147 -70 27 -172 55 -260 72 -30 5 -71 13 -90 17 -50
11 -14715 12 -14775 2z m13010 -8853 l0 -5590 -5592 0 c-3076 0 -5593 2 -5594
5 -1 7 -1 11128 0 11158 l1 22 5592 -2 5592 -3 1 -5590z"/>
</g>
</svg>
